<svg width="22" height="22" viewBox="0 0 22 22" fill="none" xmlns="http://www.w3.org/2000/svg">
<path d="M7.3833 21.3834C6.13886 21.3834 5.08886 20.9507 4.2333 20.0854C3.37775 19.2202 2.94997 18.1653 2.94997 16.9209V6.85836C2.26942 6.58614 1.71039 6.1778 1.27289 5.63336C0.835388 5.08891 0.616638 4.47641 0.616638 3.79586C0.616638 2.88197 0.922888 2.11877 1.53539 1.50627C2.14789 0.893774 2.90136 0.587524 3.7958 0.587524C4.69025 0.587524 5.44372 0.898635 6.05622 1.52086C6.66872 2.14308 6.97497 2.90141 6.97497 3.79586C6.97497 4.45697 6.75136 5.06461 6.30414 5.61877C5.85692 6.17294 5.30275 6.58614 4.64164 6.85836V16.9209C4.64164 17.6986 4.909 18.3549 5.44372 18.8896C5.97844 19.4243 6.63469 19.6917 7.41247 19.6917C8.1708 19.6917 8.81733 19.4243 9.35205 18.8896C9.88678 18.3549 10.1541 17.6986 10.1541 16.9209V5.05002C10.1541 3.80558 10.5819 2.75072 11.4375 1.88544C12.293 1.02016 13.3527 0.587524 14.6166 0.587524C15.8611 0.587524 16.9159 1.02016 17.7812 1.88544C18.6465 2.75072 19.0791 3.80558 19.0791 5.05002V15.1125C19.7402 15.4042 20.2944 15.8222 20.7416 16.3667C21.1889 16.9111 21.4125 17.5236 21.4125 18.2042C21.4125 19.0986 21.1014 19.8521 20.4791 20.4646C19.8569 21.0771 19.0986 21.3834 18.2041 21.3834C17.3291 21.3834 16.5854 21.0771 15.9729 20.4646C15.3604 19.8521 15.0541 19.0986 15.0541 18.2042C15.0541 17.5236 15.2729 16.9063 15.7104 16.3521C16.1479 15.7979 16.7069 15.3847 17.3875 15.1125V5.05002C17.3875 4.31114 17.1104 3.66461 16.5562 3.11044C16.0021 2.55627 15.3555 2.27919 14.6166 2.27919C13.8583 2.27919 13.2118 2.55627 12.6771 3.11044C12.1423 3.66461 11.875 4.31114 11.875 5.05002V16.9209C11.875 18.1653 11.4423 19.2202 10.5771 20.0854C9.71178 20.9507 8.64719 21.3834 7.3833 21.3834ZM3.7958 5.25419C4.20414 5.25419 4.55414 5.11322 4.8458 4.83127C5.13747 4.54933 5.2833 4.20419 5.2833 3.79586C5.2833 3.36808 5.13747 3.00836 4.8458 2.71669C4.55414 2.42502 4.20414 2.27919 3.7958 2.27919C3.36803 2.27919 3.01317 2.42502 2.73122 2.71669C2.44928 3.00836 2.30831 3.36808 2.30831 3.79586C2.30831 4.20419 2.44928 4.54933 2.73122 4.83127C3.01317 5.11322 3.36803 5.25419 3.7958 5.25419ZM18.2041 19.6917C18.6319 19.6917 18.9916 19.5507 19.2833 19.2688C19.575 18.9868 19.7208 18.632 19.7208 18.2042C19.7208 17.7959 19.575 17.4459 19.2833 17.1542C18.9916 16.8625 18.6319 16.7167 18.2041 16.7167C17.7958 16.7167 17.4507 16.8625 17.1687 17.1542C16.8868 17.4459 16.7458 17.7959 16.7458 18.2042C16.7458 18.632 16.8868 18.9868 17.1687 19.2688C17.4507 19.5507 17.7958 19.6917 18.2041 19.6917Z" fill="black"/>
</svg>
