<svg width="21" height="26" viewBox="0 0 21 26" fill="none" xmlns="http://www.w3.org/2000/svg">
<path d="M10.4995 0.00265503C4.70978 0.00265503 -0.000488281 4.4676 -0.000488281 9.95578C-0.000488281 11.7125 0.489155 13.4396 1.41546 14.9504C1.6314 15.3026 1.8728 15.6458 2.13305 15.9706L10.3459 25.8185C10.4259 25.9144 10.5732 25.9144 10.6531 25.8185L18.866 15.9706C19.1262 15.6458 19.3676 15.3026 19.5836 14.9504C20.5099 13.4396 20.9995 11.7125 20.9995 9.95578C20.9995 4.4676 16.2892 0.00265503 10.4995 0.00265503ZM10.4995 13.2566C8.57946 13.2566 7.01737 11.7758 7.01737 9.95578C7.01737 8.13573 8.57946 6.655 10.4995 6.655C12.4196 6.655 13.9817 8.13573 13.9817 9.95578C13.9817 11.7758 12.4196 13.2566 10.4995 13.2566Z" fill="#FE3F3F"/>
</svg>
