<svg width="16" height="16" viewBox="0 0 16 16" fill="none" xmlns="http://www.w3.org/2000/svg">
<path fill-rule="evenodd" clip-rule="evenodd" d="M0 8C0 5.87827 0.842855 3.84344 2.34315 2.34315C3.84344 0.842855 5.87827 0 8 0C10.1217 0 12.1566 0.842855 13.6569 2.34315C15.1571 3.84344 16 5.87827 16 8C16 10.1217 15.1571 12.1566 13.6569 13.6569C12.1566 15.1571 10.1217 16 8 16C5.87827 16 3.84344 15.1571 2.34315 13.6569C0.842855 12.1566 0 10.1217 0 8ZM10.8224 11.5776L8 8.75413L5.1776 11.5776L4.4224 10.8235L7.24587 8L4.4224 5.1776L5.1776 4.4224L8 7.24587L10.8224 4.4224L11.5776 5.1776L8.75413 8L11.5776 10.8224L10.8235 11.5776H10.8224Z" fill="#666666"/>
</svg>
