<svg width="44" height="44" viewBox="0 0 44 44" fill="none" xmlns="http://www.w3.org/2000/svg">
<mask id="path-1-inside-1_628_1328" fill="white">
<path d="M0 0H44V44H0V0Z"/>
</mask>
<path d="M0 0H44V44H0V0Z" fill="#4158D0"/>
<path fill-rule="evenodd" clip-rule="evenodd" d="M23.9475 27.7613C23.5967 27.849 23.2588 27.9893 22.9695 28.2062C22.8729 28.2786 22.7845 28.3678 22.6961 28.4569C22.522 28.6323 22.3485 28.8072 22.1149 28.852C22.0391 28.8666 21.9609 28.8666 21.8851 28.852C21.6515 28.8072 21.478 28.6323 21.3039 28.4569C21.2156 28.3678 21.1271 28.2786 21.0305 28.2062C20.7413 27.9893 20.4033 27.849 20.0525 27.7613C16.5754 26.8916 14 23.7466 14 20C14 15.5817 17.5817 12 22 12C26.4183 12 30 15.5817 30 20C30 23.7466 27.4246 26.8916 23.9475 27.7613ZM22 32C22.4418 32 22.8 31.6418 22.8 31.2C22.8 30.7582 22.4418 30.4 22 30.4C21.5582 30.4 21.2 30.7582 21.2 31.2C21.2 31.6418 21.5582 32 22 32Z" fill="#ffffff"/>
<path d="M44 43.7H0V44.3H44V43.7Z" fill="#B7B7B5" mask="url(#path-1-inside-1_628_1328)"/>
</svg>
