<svg width="13" height="19" viewBox="0 0 13 19" fill="none" xmlns="http://www.w3.org/2000/svg">
<path d="M5.81805 15.7066C5.99076 15.8622 6.25665 15.8647 6.43222 15.7066C6.66039 15.5011 12.0268 10.6297 12.0268 6.77487C12.0266 3.5205 9.37909 0.873169 6.12513 0.873169C2.87117 0.873169 0.223633 3.5205 0.223633 6.77467C0.223633 10.6297 5.58987 15.5011 5.81805 15.7066ZM6.12513 1.79075C8.8732 1.79075 11.109 4.0264 11.109 6.77467C11.109 9.73194 7.25417 13.6519 6.12513 14.736C4.99548 13.6521 1.14122 9.7348 1.14122 6.77467C1.14122 4.0264 3.37707 1.79075 6.12513 1.79075Z" fill="black"/>
<path d="M8.41898 6.77468C8.41898 5.50963 7.38965 4.48071 6.12502 4.48071C4.86038 4.48071 3.83105 5.50963 3.83105 6.77468C3.83105 8.03972 4.86038 9.06864 6.12502 9.06864C7.38965 9.06864 8.41898 8.03972 8.41898 6.77468ZM4.74864 6.77468C4.74864 6.01573 5.36628 5.3983 6.12502 5.3983C6.88376 5.3983 7.50139 6.01573 7.50139 6.77468C7.50139 7.53362 6.88376 8.15105 6.12502 8.15105C5.36628 8.15105 4.74864 7.53382 4.74864 6.77468Z" fill="black"/>
<path d="M9.92862 13.3192C9.35687 13.1147 9.04815 13.9764 9.61685 14.1824C10.5375 14.5152 11.109 14.9689 11.109 15.3667C11.109 16.0842 9.21291 17.085 6.12513 17.085C3.03736 17.085 1.14122 16.084 1.14122 15.3667C1.14122 14.9689 1.71298 14.5152 2.63341 14.1824C3.20089 13.9768 2.89503 13.1153 2.32164 13.3192C0.968508 13.8084 0.223633 14.5355 0.223633 15.3669C0.223633 17.0789 3.26431 18.0028 6.12513 18.0028C8.98596 18.0028 12.0266 17.0789 12.0266 15.3669C12.0266 14.5355 11.2818 13.8086 9.92862 13.3192Z" fill="black"/>
</svg>
