<svg width="16" height="17" viewBox="0 0 16 17" fill="none" xmlns="http://www.w3.org/2000/svg">
<path d="M0.533333 11.7L0.155733 11.3224L0 11.4792V11.7H0.533333ZM11.2 1.03331L11.5776 0.65571C11.5281 0.606043 11.4692 0.566637 11.4044 0.53975C11.3396 0.512863 11.2702 0.499023 11.2 0.499023C11.1298 0.499023 11.0604 0.512863 10.9956 0.53975C10.9308 0.566637 10.8719 0.606043 10.8224 0.65571L11.2 1.03331ZM15.4667 5.29998L15.8443 5.67758C15.8939 5.62804 15.9333 5.56918 15.9602 5.50439C15.9871 5.43959 16.001 5.37013 16.001 5.29998C16.001 5.22983 15.9871 5.16036 15.9602 5.09557C15.9333 5.03077 15.8939 4.97192 15.8443 4.92238L15.4667 5.29998ZM4.8 15.9666V16.5H5.0208L5.1776 16.3442L4.8 15.9666ZM0.533333 15.9666H0C0 16.1081 0.0561903 16.2437 0.15621 16.3438C0.256229 16.4438 0.391885 16.5 0.533333 16.5V15.9666ZM0.910933 12.0776L11.5776 1.41091L10.8224 0.65571L0.155733 11.3224L0.910933 12.0776ZM10.8224 1.41091L15.0891 5.67758L15.8443 4.92238L11.5776 0.65571L10.8224 1.41091ZM15.0891 4.92238L4.4224 15.589L5.1776 16.3442L15.8443 5.67758L15.0891 4.92238ZM4.8 15.4333H0.533333V16.5H4.8V15.4333ZM1.06667 15.9666V11.7H0L0 15.9666H1.06667Z" fill="#4158D0"/>
</svg>
