<svg width="44" height="44" viewBox="0 0 44 44" fill="none" xmlns="http://www.w3.org/2000/svg">
<mask id="path-1-inside-1_341_3846" fill="white">
<path d="M0 8C0 5.19974 0 3.79961 0.544967 2.73005C1.02433 1.78924 1.78924 1.02433 2.73005 0.544967C3.79961 0 5.19974 0 8 0H36C38.8003 0 40.2004 0 41.27 0.544967C42.2108 1.02433 42.9757 1.78924 43.455 2.73005C44 3.79961 44 5.19974 44 8V44H0V8Z"/>
</mask>
<path d="M0 8C0 5.19974 0 3.79961 0.544967 2.73005C1.02433 1.78924 1.78924 1.02433 2.73005 0.544967C3.79961 0 5.19974 0 8 0H36C38.8003 0 40.2004 0 41.27 0.544967C42.2108 1.02433 42.9757 1.78924 43.455 2.73005C44 3.79961 44 5.19974 44 8V44H0V8Z" fill="#4158D0"/>
<path d="M21.1876 29.9166C20.2292 29.9166 19.3265 29.7291 18.4792 29.3541C17.632 28.9791 16.889 28.4721 16.2501 27.8333C15.6112 27.1944 15.1042 26.4513 14.7292 25.6041C14.3542 24.7569 14.1667 23.8541 14.1667 22.8958C14.1667 20.9652 14.8577 19.3124 16.2397 17.9374C17.6216 16.5624 19.2709 15.8749 21.1876 15.8749H22.3542L20.5209 14.0624L21.2292 13.3333L24.2501 16.3333L21.2292 19.3541L20.5209 18.6458L22.3542 16.8124H21.1876C19.5209 16.8124 18.0938 17.4062 16.9063 18.5937C15.7188 19.7812 15.1251 21.2152 15.1251 22.8958C15.1251 24.5763 15.7188 26.0103 16.9063 27.1978C18.0938 28.3853 19.5209 28.9791 21.1876 28.9791C21.8681 28.9791 22.5105 28.8923 23.1147 28.7187C23.7188 28.5451 24.2917 28.2569 24.8334 27.8541L25.5001 28.5416C24.9029 29.0138 24.2292 29.361 23.4792 29.5833C22.7292 29.8055 21.9654 29.9166 21.1876 29.9166ZM26.5209 26.9374L22.3959 22.7916L26.5209 18.6666L30.6667 22.7916L26.5209 26.9374ZM26.5209 25.6458L29.3126 22.8749L26.5209 20.0833L23.7501 22.8749L26.5209 25.6458Z" fill="#fff"/>
<path d="M0 0H44H0ZM44 44.3H0V43.7H44V44.3ZM0 44V0V44ZM44 0V44V0Z" fill="#ffffff" mask="url(#path-1-inside-1_341_3846)"/>
</svg>
