<svg width="20" height="18" viewBox="0 0 20 18" fill="none" xmlns="http://www.w3.org/2000/svg">
<path d="M13.1042 10.2709L12.1875 9.35419C12.5487 8.36808 12.3612 7.54863 11.625 6.89585C10.8889 6.24308 10.0903 6.07641 9.22921 6.39585L8.31254 5.47919C8.54865 5.32641 8.81254 5.2153 9.10421 5.14585C9.39587 5.07641 9.69449 5.04169 10 5.04169C10.9862 5.04169 11.823 5.38544 12.5105 6.07294C13.198 6.76044 13.5417 7.59724 13.5417 8.58335C13.5417 8.88891 13.5035 9.19099 13.4271 9.4896C13.3507 9.78821 13.2431 10.0486 13.1042 10.2709ZM15.7917 12.9584L14.9584 12.125C15.6389 11.625 16.2327 11.066 16.7396 10.4479C17.2466 9.82988 17.6181 9.20835 17.8542 8.58335C17.1598 7.04169 16.1181 5.82294 14.7292 4.9271C13.3403 4.03127 11.8334 3.58335 10.2084 3.58335C9.62504 3.58335 9.02782 3.63891 8.41671 3.75002C7.8056 3.86113 7.32643 3.99308 6.97921 4.14585L6.02087 3.16669C6.50699 2.94446 7.12851 2.75002 7.88546 2.58335C8.6424 2.41669 9.38199 2.33335 10.1042 2.33335C12.0903 2.33335 13.9063 2.89933 15.5521 4.03127C17.198 5.16322 18.4028 6.68058 19.1667 8.58335C18.8056 9.47224 18.3403 10.2847 17.7709 11.0209C17.2014 11.757 16.5417 12.4028 15.7917 12.9584ZM17 17.6667L13.5 14.2292C13.0139 14.4236 12.4653 14.5729 11.8542 14.6771C11.2431 14.7813 10.625 14.8334 10 14.8334C7.97226 14.8334 6.13199 14.2674 4.47921 13.1354C2.82643 12.0035 1.61115 10.4861 0.833374 8.58335C1.11115 7.86113 1.49657 7.15627 1.98962 6.46877C2.48268 5.78127 3.08337 5.12502 3.79171 4.50002L1.16671 1.87502L2.04171 0.979187L17.8125 16.75L17 17.6667ZM4.64587 5.37502C4.13199 5.75002 3.63546 6.24308 3.15629 6.85419C2.67712 7.4653 2.33337 8.04169 2.12504 8.58335C2.83337 10.125 3.89935 11.3438 5.32296 12.2396C6.74657 13.1354 8.36115 13.5834 10.1667 13.5834C10.625 13.5834 11.0764 13.5556 11.5209 13.5C11.9653 13.4445 12.2987 13.3611 12.5209 13.25L11.1875 11.9167C11.0348 11.9861 10.8473 12.0382 10.625 12.0729C10.4028 12.1077 10.1945 12.125 10 12.125C9.02782 12.125 8.19449 11.7847 7.50004 11.1042C6.8056 10.4236 6.45837 9.58335 6.45837 8.58335C6.45837 8.37502 6.47574 8.16669 6.51046 7.95835C6.54518 7.75002 6.59726 7.56252 6.66671 7.39585L4.64587 5.37502Z" fill="black"/>
</svg>
