<svg width="62" height="72" viewBox="0 0 62 72" fill="none" xmlns="http://www.w3.org/2000/svg">
<g filter="url(#filter0_d_1267_2375)">
<path fill-rule="evenodd" clip-rule="evenodd" d="M35.8635 50.9794C34.9514 51.2075 34.0727 51.5721 33.3206 52.1362L33.0672 52.3263C32.4881 52.7606 32.0181 53.3237 31.6944 53.9711C31.3259 54.7082 30.2741 54.7082 29.9056 53.9711C29.5818 53.3237 29.1118 52.7606 28.5328 52.3263L28.2794 52.1362C27.5272 51.5721 26.6485 51.2075 25.7365 50.9793C16.6961 48.7181 10 40.541 10 30.8C10 19.3125 19.3125 10 30.8 10C42.2875 10 51.6 19.3125 51.6 30.8C51.6 40.5411 44.9038 48.7182 35.8635 50.9794ZM30.8 62C31.9488 62 32.88 61.0688 32.88 59.92C32.88 58.7712 31.9488 57.84 30.8 57.84C29.6513 57.84 28.72 58.7712 28.72 59.92C28.72 61.0688 29.6513 62 30.8 62Z" fill="url(#paint0_linear_1267_2375)" shape-rendering="crispEdges"/>
</g>
<path d="M22.7 39.15V29.075L20.85 30.475L19.775 29.025L31 20.475L42.25 29.025L41.15 30.475L39.3 29.05V39.15H22.7ZM24.525 37.325H37.475V27.65L31 22.75L24.525 27.675V37.325ZM27.075 33.075C26.775 33.075 26.5209 32.9708 26.3125 32.7625C26.1042 32.5541 26 32.3 26 32C26 31.7 26.1042 31.4458 26.3125 31.2375C26.5209 31.0291 26.775 30.925 27.075 30.925C27.3584 30.925 27.6084 31.0291 27.825 31.2375C28.0417 31.4458 28.15 31.7 28.15 32C28.15 32.3 28.0417 32.5541 27.825 32.7625C27.6084 32.9708 27.3584 33.075 27.075 33.075ZM31 33.075C30.7 33.075 30.4459 32.9708 30.2375 32.7625C30.0292 32.5541 29.925 32.3 29.925 32C29.925 31.7 30.0292 31.4458 30.2375 31.2375C30.4459 31.0291 30.7 30.925 31 30.925C31.2834 30.925 31.5334 31.0291 31.75 31.2375C31.9667 31.4458 32.075 31.7 32.075 32C32.075 32.3 31.9667 32.5541 31.75 32.7625C31.5334 32.9708 31.2834 33.075 31 33.075ZM34.925 33.075C34.625 33.075 34.3709 32.9708 34.1625 32.7625C33.9542 32.5541 33.85 32.3 33.85 32C33.85 31.7 33.9542 31.4458 34.1625 31.2375C34.3709 31.0291 34.625 30.925 34.925 30.925C35.2084 30.925 35.4584 31.0291 35.675 31.2375C35.8917 31.4458 36 31.7 36 32C36 32.3 35.8917 32.5541 35.675 32.7625C35.4584 32.9708 35.2084 33.075 34.925 33.075Z" fill="white"/>
<defs>
<filter id="filter0_d_1267_2375" x="6" y="10" width="49.6" height="60" filterUnits="userSpaceOnUse" color-interpolation-filters="sRGB">
<feFlood flood-opacity="0" result="BackgroundImageFix"/>
<feColorMatrix in="SourceAlpha" type="matrix" values="0 0 0 0 0 0 0 0 0 0 0 0 0 0 0 0 0 0 127 0" result="hardAlpha"/>
<feOffset dy="4"/>
<feGaussianBlur stdDeviation="2"/>
<feComposite in2="hardAlpha" operator="out"/>
<feColorMatrix type="matrix" values="0 0 0 0 0 0 0 0 0 0 0 0 0 0 0 0 0 0 0.05 0"/>
<feBlend mode="normal" in2="BackgroundImageFix" result="effect1_dropShadow_1267_2375"/>
<feBlend mode="normal" in="SourceGraphic" in2="effect1_dropShadow_1267_2375" result="shape"/>
</filter>
<linearGradient id="paint0_linear_1267_2375" x1="17.3125" y1="10" x2="30.8" y2="62" gradientUnits="userSpaceOnUse">
<stop stop-color="#384AF1"/>
<stop offset="1" stop-color="#2356F6" stop-opacity="0.85"/>
</linearGradient>
</defs>
</svg>
