<svg width="16" height="58" viewBox="0 0 16 58" fill="none" xmlns="http://www.w3.org/2000/svg">
<path d="M8 12.25C6.81111 12.25 5.80556 11.8361 4.98333 11.0083C4.16111 10.1806 3.75 9.17778 3.75 8C3.75 6.81111 4.16389 5.80556 4.99167 4.98333C5.81944 4.16111 6.82222 3.75 8 3.75C9.18889 3.75 10.1944 4.16389 11.0167 4.99167C11.8389 5.81944 12.25 6.82222 12.25 8C12.25 9.18889 11.8361 10.1944 11.0083 11.0167C10.1806 11.8389 9.17778 12.25 8 12.25ZM8 11.5167C8.97778 11.5167 9.80833 11.175 10.4917 10.4917C11.175 9.80833 11.5167 8.97778 11.5167 8C11.5167 7.02222 11.175 6.19167 10.4917 5.50833C9.80833 4.825 8.97778 4.48333 8 4.48333C7.02222 4.48333 6.19167 4.825 5.50833 5.50833C4.825 6.19167 4.48333 7.02222 4.48333 8C4.48333 8.97778 4.825 9.80833 5.50833 10.4917C6.19167 11.175 7.02222 11.5167 8 11.5167Z" fill="black"/>
<path d="M8 52.3334V57.6667" stroke="black" stroke-opacity="0.95" stroke-width="0.666667" stroke-linecap="round" stroke-linejoin="round"/>
<path d="M8 52.3334C10.2091 52.3334 12 50.5425 12 48.3334C12 46.1242 10.2091 44.3334 8 44.3334C5.79086 44.3334 4 46.1242 4 48.3334C4 50.5425 5.79086 52.3334 8 52.3334Z" stroke="black" stroke-opacity="0.95" stroke-width="0.666667" stroke-linecap="round" stroke-linejoin="round"/>
<line x1="8.5" y1="15.5" x2="8.5" y2="39.5" stroke="#666666" stroke-dasharray="2 2"/>
</svg>
