<svg width="44" height="44" viewBox="0 0 44 44" fill="none" xmlns="http://www.w3.org/2000/svg">
<mask id="path-1-inside-1_313_1188" fill="white">
<path d="M0 8C0 5.19974 0 3.79961 0.544967 2.73005C1.02433 1.78924 1.78924 1.02433 2.73005 0.544967C3.79961 0 5.19974 0 8 0H36C38.8003 0 40.2004 0 41.27 0.544967C42.2108 1.02433 42.9757 1.78924 43.455 2.73005C44 3.79961 44 5.19974 44 8V44H0V8Z"/>
</mask>
<path d="M0 8C0 5.19974 0 3.79961 0.544967 2.73005C1.02433 1.78924 1.78924 1.02433 2.73005 0.544967C3.79961 0 5.19974 0 8 0H36C38.8003 0 40.2004 0 41.27 0.544967C42.2108 1.02433 42.9757 1.78924 43.455 2.73005C44 3.79961 44 5.19974 44 8V44H0V8Z" fill="white"/>
<path d="M13.3333 22H30.6666" stroke="#4158D0"/>
<path d="M0 0H44H0ZM44 44.3H0V43.7H44V44.3ZM0 44V0V44ZM44 0V44V0Z" fill="#B7B7B5" mask="url(#path-1-inside-1_313_1188)"/>
</svg>
