<svg width="44" height="44" viewBox="0 0 44 44" fill="none" xmlns="http://www.w3.org/2000/svg">
<mask id="path-1-inside-1_313_1191" fill="white">
<path d="M0 0H44V36C44 38.8003 44 40.2004 43.455 41.27C42.9757 42.2108 42.2108 42.9757 41.27 43.455C40.2004 44 38.8003 44 36 44H8C5.19974 44 3.79961 44 2.73005 43.455C1.78924 42.9757 1.02433 42.2108 0.544967 41.27C0 40.2004 0 38.8003 0 36V0Z"/>
</mask>
<path d="M0 0H44V36C44 38.8003 44 40.2004 43.455 41.27C42.9757 42.2108 42.2108 42.9757 41.27 43.455C40.2004 44 38.8003 44 36 44H8C5.19974 44 3.79961 44 2.73005 43.455C1.78924 42.9757 1.02433 42.2108 0.544967 41.27C0 40.2004 0 38.8003 0 36V0Z" fill="#FBFBFB"/>
<path d="M22 13.3334V30.6667M13.3333 22H30.6666" stroke="black"/>
<path d="M0 0H44H0ZM44 39C44 41.9271 41.6271 44.3 38.7 44.3H5.3C2.37289 44.3 0 41.9271 0 39C0 41.5957 2.23858 43.7 5 43.7H39C41.7614 43.7 44 41.5957 44 39ZM0 44V0V44ZM44 0V44V0Z" fill="#B7B7B5" mask="url(#path-1-inside-1_313_1191)"/>
</svg>
