<svg width="20" height="20" viewBox="0 0 20 20" fill="none" xmlns="http://www.w3.org/2000/svg">
<path fill-rule="evenodd" clip-rule="evenodd" d="M18.2092 19.6183L13.6982 15.1063C10.1803 17.8789 5.11099 17.4293 2.13595 14.0808C-0.839143 10.7324 -0.689057 5.64541 2.47824 2.47816C5.64548 -0.689089 10.7325 -0.839106 14.0808 2.13599C17.4293 5.11109 17.8789 10.1803 15.1063 13.6983L19.6183 18.2093C19.9524 18.6065 19.9272 19.1932 19.5601 19.5602C19.1931 19.9273 18.6064 19.9525 18.2093 19.6183L18.2092 19.6183ZM1.98819 8.45933C1.98819 11.0597 3.54562 13.4082 5.94192 14.4204C8.33823 15.4325 11.1077 14.9116 12.9725 13.098C12.9922 13.0753 13.0112 13.0533 13.0322 13.0323C13.0532 13.0113 13.0752 12.9913 13.0972 12.9733C15.1319 10.8821 15.5154 7.68782 14.0335 5.17438C12.5517 2.66093 9.57107 1.45006 6.75613 2.21795C3.94125 2.98585 1.98843 5.54255 1.98819 8.4603V8.45933Z" fill="#666666"/>
</svg>
