<svg width="27" height="26" viewBox="0 0 27 26" fill="none" xmlns="http://www.w3.org/2000/svg">
<path d="M21.05 9.47087L19.6791 6.55421L16.7625 5.18337L19.6791 3.81254L21.05 0.895874L22.4208 3.81254L25.3375 5.18337L22.4208 6.55421L21.05 9.47087ZM23.5291 18.1625L22.5958 16.2375L20.6708 15.3042L22.5958 14.3709L23.5291 12.4459L24.4625 14.3709L26.3875 15.3042L24.4625 16.2375L23.5291 18.1625ZM7.80831 25.0167L7.51664 22.2167C7.30275 22.1973 7.07428 22.1341 6.83122 22.0271C6.58817 21.9202 6.36942 21.7792 6.17497 21.6042L3.75414 22.625L0.866638 17.8417L3.1708 16.2667C3.07358 15.9945 3.02497 15.7563 3.02497 15.5521C3.02497 15.348 3.07358 15.1098 3.1708 14.8375L0.866638 13.2625L3.75414 8.47921L6.17497 9.50004C6.34997 9.34449 6.56386 9.21323 6.81664 9.10629C7.06942 8.99935 7.30275 8.93615 7.51664 8.91671L7.80831 6.11671H13.4083L13.7 8.91671C13.9139 8.93615 14.1472 8.99935 14.4 9.10629C14.6528 9.21323 14.8764 9.34449 15.0708 9.50004L17.4916 8.47921L20.35 13.2625L18.075 14.8375C18.1528 15.1098 18.1916 15.348 18.1916 15.5521C18.1916 15.7563 18.1528 15.9945 18.075 16.2667L20.35 17.8417L17.4916 22.625L15.0708 21.6042C14.8764 21.7792 14.6528 21.9202 14.4 22.0271C14.1472 22.1341 13.9139 22.1973 13.7 22.2167L13.4083 25.0167H7.80831ZM10.6083 19.1542C11.6583 19.1542 12.5187 18.8139 13.1896 18.1334C13.8604 17.4528 14.1958 16.5973 14.1958 15.5667C14.1958 14.5167 13.8555 13.6563 13.175 12.9855C12.4944 12.3146 11.6389 11.9792 10.6083 11.9792C9.5583 11.9792 8.69789 12.3195 8.02706 13C7.35622 13.6806 7.02081 14.5362 7.02081 15.5667C7.02081 16.6167 7.36108 17.4771 8.04164 18.148C8.72219 18.8188 9.57775 19.1542 10.6083 19.1542ZM10.6083 17.025C10.1805 17.025 9.83053 16.8889 9.55831 16.6167C9.28608 16.3445 9.14997 15.9945 9.14997 15.5667C9.14997 15.1389 9.28608 14.7889 9.55831 14.5167C9.83053 14.2445 10.1805 14.1084 10.6083 14.1084C11.0361 14.1084 11.3861 14.2445 11.6583 14.5167C11.9305 14.7889 12.0666 15.1389 12.0666 15.5667C12.0666 15.9945 11.9305 16.3445 11.6583 16.6167C11.3861 16.8889 11.0361 17.025 10.6083 17.025ZM9.61664 22.8875H11.6L11.8333 20.6709C12.3972 20.5348 12.9173 20.3403 13.3937 20.0875C13.8701 19.8348 14.3027 19.4945 14.6916 19.0667L16.6166 19.9125L17.6083 18.3959L15.7708 17.1125C15.9847 16.607 16.0916 16.0917 16.0916 15.5667C16.0916 15.0417 15.9847 14.5264 15.7708 14.0209L17.6083 12.7375L16.6166 11.2209L14.6916 12.0667C14.3027 11.6389 13.8701 11.2987 13.3937 11.0459C12.9173 10.7931 12.3972 10.5987 11.8333 10.4625L11.6 8.24587H9.61664L9.38331 10.4625C8.81942 10.5987 8.29928 10.7931 7.82289 11.0459C7.3465 11.2987 6.91386 11.6389 6.52497 12.0667L4.59997 11.2209L3.6083 12.7375L5.44581 14.0209C5.23192 14.5264 5.12497 15.0417 5.12497 15.5667C5.12497 16.0917 5.23192 16.607 5.44581 17.1125L3.6083 18.3959L4.59997 19.9125L6.52497 19.0667C6.91386 19.4945 7.3465 19.8348 7.82289 20.0875C8.29928 20.3403 8.81942 20.5348 9.38331 20.6709L9.61664 22.8875Z" fill="#666666"/>
</svg>
