<svg width="12" height="12" viewBox="0 0 12 12" fill="none" xmlns="http://www.w3.org/2000/svg">
<path d="M6 11.3125C4.51389 11.3125 3.25694 10.7951 2.22917 9.76042C1.20139 8.72569 0.6875 7.47222 0.6875 6C0.6875 4.51389 1.20486 3.25694 2.23958 2.22917C3.27431 1.20139 4.52778 0.6875 6 0.6875C7.48611 0.6875 8.74306 1.20486 9.77083 2.23958C10.7986 3.27431 11.3125 4.52778 11.3125 6C11.3125 7.48611 10.7951 8.74306 9.76042 9.77083C8.72569 10.7986 7.47222 11.3125 6 11.3125ZM6 10.3958C7.22222 10.3958 8.26042 9.96875 9.11458 9.11458C9.96875 8.26042 10.3958 7.22222 10.3958 6C10.3958 4.77778 9.96875 3.73958 9.11458 2.88542C8.26042 2.03125 7.22222 1.60417 6 1.60417C4.77778 1.60417 3.73958 2.03125 2.88542 2.88542C2.03125 3.73958 1.60417 4.77778 1.60417 6C1.60417 7.22222 2.03125 8.26042 2.88542 9.11458C3.73958 9.96875 4.77778 10.3958 6 10.3958Z" fill="black"/>
</svg>
