<svg width="15" height="4" viewBox="0 0 15 4" fill="none" xmlns="http://www.w3.org/2000/svg">
<path d="M1.55831 3.14591C1.23886 3.14591 0.968031 3.0348 0.745809 2.81258C0.523587 2.59036 0.412476 2.31953 0.412476 2.00008C0.412476 1.68064 0.523587 1.4098 0.745809 1.18758C0.968031 0.965359 1.23886 0.854248 1.55831 0.854248C1.87775 0.854248 2.14859 0.965359 2.37081 1.18758C2.59303 1.4098 2.70414 1.68064 2.70414 2.00008C2.70414 2.31953 2.59303 2.59036 2.37081 2.81258C2.14859 3.0348 1.87775 3.14591 1.55831 3.14591ZM7.59998 3.14591C7.28053 3.14591 7.0097 3.0348 6.78748 2.81258C6.56525 2.59036 6.45414 2.31953 6.45414 2.00008C6.45414 1.68064 6.56525 1.4098 6.78748 1.18758C7.0097 0.965359 7.28053 0.854248 7.59998 0.854248C7.91942 0.854248 8.19025 0.965359 8.41248 1.18758C8.6347 1.4098 8.74581 1.68064 8.74581 2.00008C8.74581 2.31953 8.6347 2.59036 8.41248 2.81258C8.19025 3.0348 7.91942 3.14591 7.59998 3.14591ZM13.6416 3.14591C13.3222 3.14591 13.0514 3.0348 12.8291 2.81258C12.6069 2.59036 12.4958 2.31953 12.4958 2.00008C12.4958 1.68064 12.6069 1.4098 12.8291 1.18758C13.0514 0.965359 13.3222 0.854248 13.6416 0.854248C13.9611 0.854248 14.2319 0.965359 14.4541 1.18758C14.6764 1.4098 14.7875 1.68064 14.7875 2.00008C14.7875 2.31953 14.6764 2.59036 14.4541 2.81258C14.2319 3.0348 13.9611 3.14591 13.6416 3.14591Z" fill="#727272"/>
</svg>
