<svg width="50" height="104" viewBox="0 0 50 104" fill="none" xmlns="http://www.w3.org/2000/svg">
<g filter="url(#filter0_d_2147_500)">
<path fill-rule="evenodd" clip-rule="evenodd" d="M29.8635 40.9794C28.9514 41.2075 28.0727 41.5721 27.3206 42.1362L27.0672 42.3263C26.4881 42.7606 26.0181 43.3237 25.6944 43.9711C25.3259 44.7082 24.2741 44.7082 23.9056 43.9711C23.5818 43.3237 23.1118 42.7606 22.5328 42.3263L22.2794 42.1362C21.5272 41.5721 20.6485 41.2075 19.7365 40.9793C10.6961 38.7181 4 30.541 4 20.8C4 9.31248 13.3125 0 24.8 0C36.2875 0 45.6 9.31248 45.6 20.8C45.6 30.5411 38.9038 38.7182 29.8635 40.9794ZM24.8 52C25.9488 52 26.88 51.0688 26.88 49.92C26.88 48.7712 25.9488 47.84 24.8 47.84C23.6513 47.84 22.72 48.7712 22.72 49.92C22.72 51.0688 23.6513 52 24.8 52Z" fill="url(#paint0_linear_2147_500)" shape-rendering="crispEdges"/>
</g>
<path d="M16.6999 29.15V19.075L14.8499 20.475L13.7749 19.025L24.9999 10.475L36.2499 19.025L35.1499 20.475L33.2999 19.05V29.15H16.6999ZM18.5249 27.325H31.4749V17.65L24.9999 12.75L18.5249 17.675V27.325ZM21.0749 23.075C20.7749 23.075 20.5207 22.9708 20.3124 22.7625C20.1041 22.5541 19.9999 22.3 19.9999 22C19.9999 21.7 20.1041 21.4458 20.3124 21.2375C20.5207 21.0291 20.7749 20.925 21.0749 20.925C21.3582 20.925 21.6082 21.0291 21.8249 21.2375C22.0416 21.4458 22.1499 21.7 22.1499 22C22.1499 22.3 22.0416 22.5541 21.8249 22.7625C21.6082 22.9708 21.3582 23.075 21.0749 23.075ZM24.9999 23.075C24.6999 23.075 24.4457 22.9708 24.2374 22.7625C24.0291 22.5541 23.9249 22.3 23.9249 22C23.9249 21.7 24.0291 21.4458 24.2374 21.2375C24.4457 21.0291 24.6999 20.925 24.9999 20.925C25.2832 20.925 25.5332 21.0291 25.7499 21.2375C25.9666 21.4458 26.0749 21.7 26.0749 22C26.0749 22.3 25.9666 22.5541 25.7499 22.7625C25.5332 22.9708 25.2832 23.075 24.9999 23.075ZM28.9249 23.075C28.6249 23.075 28.3707 22.9708 28.1624 22.7625C27.9541 22.5541 27.8499 22.3 27.8499 22C27.8499 21.7 27.9541 21.4458 28.1624 21.2375C28.3707 21.0291 28.6249 20.925 28.9249 20.925C29.2082 20.925 29.4582 21.0291 29.6749 21.2375C29.8916 21.4458 29.9999 21.7 29.9999 22C29.9999 22.3 29.8916 22.5541 29.6749 22.7625C29.4582 22.9708 29.2082 23.075 28.9249 23.075Z" fill="white"/>
<defs>
<filter id="filter0_d_2147_500" x="0" y="0" width="49.6001" height="60" filterUnits="userSpaceOnUse" color-interpolation-filters="sRGB">
<feFlood flood-opacity="0" result="BackgroundImageFix"/>
<feColorMatrix in="SourceAlpha" type="matrix" values="0 0 0 0 0 0 0 0 0 0 0 0 0 0 0 0 0 0 127 0" result="hardAlpha"/>
<feOffset dy="4"/>
<feGaussianBlur stdDeviation="2"/>
<feComposite in2="hardAlpha" operator="out"/>
<feColorMatrix type="matrix" values="0 0 0 0 0 0 0 0 0 0 0 0 0 0 0 0 0 0 0.05 0"/>
<feBlend mode="normal" in2="BackgroundImageFix" result="effect1_dropShadow_2147_500"/>
<feBlend mode="normal" in="SourceGraphic" in2="effect1_dropShadow_2147_500" result="shape"/>
</filter>
<linearGradient id="paint0_linear_2147_500" x1="11.3125" y1="2.45473e-08" x2="24.8" y2="52" gradientUnits="userSpaceOnUse">
<stop stop-color="#384AF1"/>
<stop offset="1" stop-color="#2356F6" stop-opacity="0.85"/>
</linearGradient>
</defs>
</svg>
