<svg width="19" height="22" viewBox="0 0 19 22" fill="none" xmlns="http://www.w3.org/2000/svg">
<path d="M14.225 7.925H15.35V4.775H18.5V3.65H15.35V0.5H14.225V3.65H11.075V4.775H14.225V7.925ZM8 11.575C8.43333 11.575 8.80417 11.4208 9.1125 11.1125C9.42083 10.8042 9.575 10.4333 9.575 10C9.575 9.56667 9.42083 9.19583 9.1125 8.8875C8.80417 8.57917 8.43333 8.425 8 8.425C7.56667 8.425 7.19583 8.57917 6.8875 8.8875C6.57917 9.19583 6.425 9.56667 6.425 10C6.425 10.4333 6.57917 10.8042 6.8875 11.1125C7.19583 11.4208 7.56667 11.575 8 11.575ZM8 21.8C5.4 19.5333 3.45833 17.4333 2.175 15.5C0.891667 13.5667 0.25 11.8 0.25 10.2C0.25 7.78333 1.02917 5.85417 2.5875 4.4125C4.14583 2.97083 5.95 2.25 8 2.25C8.25 2.25 8.49583 2.2625 8.7375 2.2875C8.97917 2.3125 9.20833 2.34167 9.425 2.375V3.55C9.20833 3.5 8.97917 3.45833 8.7375 3.425C8.49583 3.39167 8.25 3.375 8 3.375C6.13333 3.375 4.5625 4.0125 3.2875 5.2875C2.0125 6.5625 1.375 8.2 1.375 10.2C1.375 11.4667 1.94167 12.9792 3.075 14.7375C4.20833 16.4958 5.85 18.35 8 20.3C10.1833 18.35 11.8333 16.4958 12.95 14.7375C14.0667 12.9792 14.625 11.4667 14.625 10.2C14.625 10.1 14.6208 9.99583 14.6125 9.8875C14.6042 9.77917 14.5917 9.675 14.575 9.575H15.725C15.7417 9.675 15.75 9.77917 15.75 9.8875V10.2C15.75 11.8 15.1083 13.5667 13.825 15.5C12.5417 17.4333 10.6 19.5333 8 21.8Z" fill="white"/>
</svg>
