<svg width="16" height="16" viewBox="0 0 16 16" fill="none" xmlns="http://www.w3.org/2000/svg">
<path d="M3.73333 0V5.33333M12.2667 0V5.33333M1.6 2.66667H14.4C14.6829 2.66667 14.9542 2.77905 15.1542 2.97909C15.3543 3.17912 15.4667 3.45044 15.4667 3.73333V14.4C15.4667 14.6829 15.3543 14.9542 15.1542 15.1542C14.9542 15.3543 14.6829 15.4667 14.4 15.4667H1.6C1.3171 15.4667 1.04579 15.3543 0.845752 15.1542C0.645713 14.9542 0.533333 14.6829 0.533333 14.4V3.73333C0.533333 3.45044 0.645713 3.17912 0.845752 2.97909C1.04579 2.77905 1.3171 2.66667 1.6 2.66667Z" stroke="black"/>
</svg>
