<svg width="22" height="22" viewBox="0 0 22 22" fill="none" xmlns="http://www.w3.org/2000/svg">
<path d="M2.16249 21.9667C1.55971 21.9667 1.05416 21.7625 0.645825 21.3542C0.237492 20.9458 0.0333252 20.4403 0.0333252 19.8375V2.16249C0.0333252 1.55971 0.237492 1.05416 0.645825 0.645825C1.05416 0.237492 1.55971 0.0333252 2.16249 0.0333252H19.8375C20.4403 0.0333252 20.9458 0.237492 21.3542 0.645825C21.7625 1.05416 21.9667 1.55971 21.9667 2.16249V19.8375C21.9667 20.4403 21.7625 20.9458 21.3542 21.3542C20.9458 21.7625 20.4403 21.9667 19.8375 21.9667H2.16249ZM8.78333 19.8375V12.05H2.16249V19.8375H8.78333ZM10.9125 19.8375H19.8375V12.05H10.9125V19.8375ZM2.16249 9.92083H19.8375V2.16249H2.16249V9.92083Z" fill="#666666"/>
</svg>
