<svg width="20" height="20" viewBox="0 0 20 20" fill="none" xmlns="http://www.w3.org/2000/svg">
<path fill-rule="evenodd" clip-rule="evenodd" d="M2.34958 10.5C2.43605 10.6457 2.55595 10.8394 2.70825 11.0669C3.06157 11.5943 3.58523 12.2965 4.26589 12.9966C5.63698 14.4067 7.57775 15.7419 10.0001 15.7419C12.4224 15.7419 14.3631 14.4067 15.7342 12.9966C16.4149 12.2965 16.9386 11.5943 17.2919 11.0669C17.4442 10.8394 17.564 10.6457 17.6505 10.5C17.564 10.3543 17.4442 10.1606 17.2919 9.93312C16.9386 9.40565 16.4149 8.70348 15.7342 8.00342C14.3631 6.59325 12.4224 5.25806 10.0001 5.25806C7.57775 5.25806 5.63698 6.59325 4.26589 8.00342C3.58523 8.70348 3.06157 9.40565 2.70825 9.93312C2.55595 10.1606 2.43605 10.3543 2.34958 10.5ZM18.3722 10.5C18.9295 10.2101 18.9293 10.2098 18.9292 10.2096L18.928 10.2074L18.9255 10.2026L18.9171 10.1868C18.9101 10.1735 18.9 10.1548 18.8869 10.1311C18.8609 10.0835 18.8229 10.0156 18.7731 9.93035C18.6737 9.75992 18.5271 9.51938 18.3347 9.23221C17.9507 8.65886 17.3803 7.8933 16.6338 7.12561C15.1508 5.6003 12.9054 4 10.0001 4C7.09463 4 4.84933 5.6003 3.36628 7.12561C2.61987 7.8933 2.04945 8.65886 1.66544 9.23221C1.47305 9.51938 1.32645 9.75992 1.22701 9.93035C1.17727 10.0156 1.13926 10.0835 1.11317 10.1311C1.10011 10.1548 1.09003 10.1735 1.08295 10.1868L1.07458 10.2026L1.07208 10.2074L1.07125 10.209C1.07112 10.2092 1.0707 10.2101 1.62791 10.5L1.0707 10.2101C0.976432 10.3918 0.976432 10.6082 1.0707 10.7899L1.62791 10.5C1.0707 10.7899 1.07058 10.7898 1.0707 10.7899L1.07125 10.791L1.07208 10.7926L1.07458 10.7974L1.08295 10.8132C1.09003 10.8265 1.10011 10.8452 1.11317 10.8689C1.13926 10.9165 1.17727 10.9844 1.22701 11.0697C1.32645 11.2401 1.47305 11.4806 1.66544 11.7678C2.04945 12.3411 2.61987 13.1067 3.36628 13.8744C4.84933 15.3997 7.09463 17 10.0001 17C12.9054 17 15.1508 15.3997 16.6338 13.8744C17.3803 13.1067 17.9507 12.3411 18.3347 11.7678C18.5271 11.4806 18.6737 11.2401 18.7731 11.0697C18.8229 10.9844 18.8609 10.9165 18.8869 10.8689C18.9 10.8452 18.9101 10.8265 18.9171 10.8132L18.9255 10.7974L18.928 10.7926L18.9289 10.791C18.929 10.7908 18.9295 10.7899 18.3722 10.5ZM18.3722 10.5L18.9295 10.7899C19.0236 10.6082 19.0235 10.3914 18.9292 10.2096L18.3722 10.5ZM2.18485 10.7905C2.18481 10.7906 2.18481 10.7906 2.18485 10.7905ZM10.0001 8.6129C8.95973 8.6129 8.11632 9.45782 8.11632 10.5C8.11632 11.5422 8.95973 12.3871 10.0001 12.3871C11.0404 12.3871 11.8838 11.5422 11.8838 10.5C11.8838 9.45782 11.0404 8.6129 10.0001 8.6129ZM6.8605 10.5C6.8605 8.76297 8.26613 7.35484 10.0001 7.35484C11.734 7.35484 13.1396 8.76297 13.1396 10.5C13.1396 12.2371 11.734 13.6452 10.0001 13.6452C8.26613 13.6452 6.8605 12.2371 6.8605 10.5ZM2.18486 10.2096C2.18482 10.2095 2.18482 10.2095 2.18486 10.2096Z" fill="black"/>
</svg>
