<svg width="16" height="24" viewBox="0 0 16 24" fill="none" xmlns="http://www.w3.org/2000/svg">
<path d="M8.00001 17.25C10.0417 15.6167 11.5778 14.0563 12.6083 12.5688C13.6389 11.0813 14.1542 9.66669 14.1542 8.32502C14.1542 7.1778 13.9451 6.20072 13.5271 5.39377C13.109 4.58683 12.5889 3.93058 11.9667 3.42502C11.3445 2.91947 10.6736 2.55002 9.95417 2.31669C9.23473 2.08336 8.58334 1.96669 8.00001 1.96669C7.41667 1.96669 6.76529 2.08336 6.04584 2.31669C5.3264 2.55002 4.65556 2.91947 4.03334 3.42502C3.41112 3.93058 2.89584 4.58683 2.48751 5.39377C2.07917 6.20072 1.87501 7.1778 1.87501 8.32502C1.87501 9.66669 2.38542 11.0813 3.40626 12.5688C4.42709 14.0563 5.95834 15.6167 8.00001 17.25ZM8.00001 19.4084C5.33612 17.425 3.36251 15.5195 2.07917 13.6917C0.795842 11.8639 0.154175 10.075 0.154175 8.32502C0.154175 6.98336 0.392369 5.81669 0.868758 4.82502C1.34515 3.83336 1.95279 3.00211 2.69167 2.33127C3.43056 1.66044 4.27154 1.15002 5.21459 0.800024C6.15765 0.450024 7.08612 0.275024 8.00001 0.275024C8.9139 0.275024 9.83751 0.450024 10.7708 0.800024C11.7042 1.15002 12.5451 1.66044 13.2938 2.33127C14.0424 3.00211 14.6597 3.83336 15.1458 4.82502C15.632 5.81669 15.875 6.98336 15.875 8.32502C15.875 10.075 15.2285 11.8639 13.9354 13.6917C12.6424 15.5195 10.6639 17.425 8.00001 19.4084ZM8.00001 10.1334C8.5639 10.1334 9.04515 9.93891 9.44376 9.55002C9.84237 9.16113 10.0417 8.68475 10.0417 8.12086C10.0417 7.55697 9.84237 7.08058 9.44376 6.69169C9.04515 6.3028 8.5639 6.10836 8.00001 6.10836C7.45556 6.10836 6.98404 6.3028 6.58542 6.69169C6.18681 7.08058 5.98751 7.55697 5.98751 8.12086C5.98751 8.68475 6.18681 9.16113 6.58542 9.55002C6.98404 9.93891 7.45556 10.1334 8.00001 10.1334ZM0.154175 23.6959V22.0042H15.875V23.6959H0.154175Z" fill="black"/>
</svg>
