<svg width="55" height="64" viewBox="0 0 55 64" fill="none" xmlns="http://www.w3.org/2000/svg">
<g filter="url(#filter0_d_1432_14)">
<path fill-rule="evenodd" clip-rule="evenodd" d="M31.8847 44.6748C31.1129 44.8678 30.3694 45.1764 29.733 45.6537L29.2724 45.9991C28.9443 46.2452 28.678 46.5643 28.4945 46.9311C28.126 47.6682 27.0742 47.6682 26.7057 46.9311C26.5223 46.5643 26.256 46.2452 25.9279 45.9991L25.4673 45.6537C24.8309 45.1764 24.0874 44.8679 23.3157 44.6749C15.666 42.7616 10 35.8425 10 27.6C10 17.8798 17.8798 10 27.6 10C37.3202 10 45.2 17.8798 45.2 27.6C45.2 35.8424 39.5341 42.7614 31.8847 44.6748ZM27.5998 54.0005C28.5719 54.0005 29.3598 53.2125 29.3598 52.2405C29.3598 51.2684 28.5719 50.4805 27.5998 50.4805C26.6278 50.4805 25.8398 51.2684 25.8398 52.2405C25.8398 53.2125 26.6278 54.0005 27.5998 54.0005Z" fill="url(#paint0_linear_1432_14)" shape-rendering="crispEdges"/>
</g>
<defs>
<filter id="filter0_d_1432_14" x="6" y="10" width="43.2" height="52.0005" filterUnits="userSpaceOnUse" color-interpolation-filters="sRGB">
<feFlood flood-opacity="0" result="BackgroundImageFix"/>
<feColorMatrix in="SourceAlpha" type="matrix" values="0 0 0 0 0 0 0 0 0 0 0 0 0 0 0 0 0 0 127 0" result="hardAlpha"/>
<feOffset dy="4"/>
<feGaussianBlur stdDeviation="2"/>
<feComposite in2="hardAlpha" operator="out"/>
<feColorMatrix type="matrix" values="0 0 0 0 0 0 0 0 0 0 0 0 0 0 0 0 0 0 0.05 0"/>
<feBlend mode="normal" in2="BackgroundImageFix" result="effect1_dropShadow_1432_14"/>
<feBlend mode="normal" in="SourceGraphic" in2="effect1_dropShadow_1432_14" result="shape"/>
</filter>
<linearGradient id="paint0_linear_1432_14" x1="16.1875" y1="10" x2="27.6002" y2="54.0004" gradientUnits="userSpaceOnUse">
<stop stop-color="#F21E1E" stop-opacity="0.89"/>
<stop offset="0.994792" stop-color="#D12A2A" stop-opacity="0.89"/>
</linearGradient>
</defs>
</svg>
